# This file uses centimeters as units for non-parametric coordinates.

mtllib FWall.mtl
g default
v -3.010084 -0.011691 5.606566
v -0.010084 -0.011691 5.606566
v -3.010084 2.988309 5.606566
v -0.010084 2.988309 5.606566
v -3.010084 2.988309 -3.112842
v -0.010084 2.988309 -3.112842
v -3.010084 -0.011691 -3.112842
v -0.010084 -0.011691 -3.112842
v -3.010084 2.988309 -0.037617
v -0.010084 2.988309 -0.037617
v -0.010084 -0.011691 -0.037617
v -3.010084 -0.011691 -0.037617
v 5.447051 2.988309 -0.037617
v 5.447051 -0.011691 -0.037617
v 5.447051 -0.011691 -3.112842
v 5.447051 2.988309 -3.112842
v -3.010084 -0.011691 5.606566
v -3.010084 -0.011691 5.606566
v -0.010084 -0.011691 5.606566
v -0.010084 -0.011691 5.606566
v -3.010084 2.988309 5.606566
v -3.010084 2.988309 5.606566
v -0.010084 2.988309 5.606566
v -0.010084 2.988309 5.606566
v -3.010084 2.988309 -3.112842
v -3.010084 2.988309 -3.112842
v -0.010084 2.988309 -3.112842
v -0.010084 2.988309 -3.112842
v -0.010084 2.988309 -3.112842
v -3.010084 -0.011691 -3.112842
v -3.010084 -0.011691 -3.112842
v -0.010084 -0.011691 -3.112842
v -0.010084 -0.011691 -3.112842
v -0.010084 -0.011691 -3.112842
v -3.010084 2.988309 -0.037617
v -3.010084 2.988309 -0.037617
v -3.010084 2.988309 -0.037617
v -0.010084 2.988309 -0.037617
v -0.010084 2.988309 -0.037617
v -0.010084 2.988309 -0.037617
v -0.010084 2.988309 -0.037617
v -0.010084 -0.011691 -0.037617
v -0.010084 -0.011691 -0.037617
v -0.010084 -0.011691 -0.037617
v -0.010084 -0.011691 -0.037617
v -3.010084 -0.011691 -0.037617
v -3.010084 -0.011691 -0.037617
v -3.010084 -0.011691 -0.037617
v 5.447051 2.988309 -0.037617
v 5.447051 2.988309 -0.037617
v 5.447051 -0.011691 -0.037617
v 5.447051 -0.011691 -0.037617
v 5.447051 -0.011691 -3.112842
v 5.447051 -0.011691 -3.112842
v 5.447051 2.988309 -3.112842
v 5.447051 2.988309 -3.112842
vt 0.621216 0.649136
vt 0.621216 0.899136
vt 0.625000 0.647675
vt 0.625000 0.896145
vt 0.623551 0.649136
vt 0.623551 0.899136
vt 0.376449 0.649136
vt 0.376449 0.899136
vt 0.621945 0.899136
vt 0.378055 0.899136
vt 0.623889 0.649136
vt 0.621945 0.649136
vt 0.378055 0.899136
vt 0.378055 0.649136
vt 0.623551 0.649136
vt 0.623551 0.899136
vt 0.375000 0.896145
vt 0.375000 0.646859
vt 0.378784 0.649136
vt 0.625000 0.646859
vt 0.375000 0.647675
vt 0.375000 0.896859
vt 0.625000 0.896859
vt 0.378784 0.899136
vt 0.375000 0.898331
vt 0.375000 0.645771
vt 0.625000 0.645771
vt 0.625000 0.898331
vt 0.623551 0.899136
vt 0.375000 0.645489
vt 0.375000 0.895771
vt 0.625000 0.645489
vt 0.625000 0.895771
vt 0.623551 0.649136
vt 0.376111 0.899136
vt 0.375000 0.898677
vt 0.375000 0.646928
vt 0.625000 0.646928
vt 0.625000 0.898677
vt 0.623889 0.899136
vt 0.623889 0.899136
vt 0.623889 0.649136
vt 0.625000 0.645143
vt 0.625000 0.896892
vt 0.378055 0.649136
vt 0.375000 0.896892
vt 0.376111 0.649136
vt 0.375000 0.645143
vt 0.378055 0.899136
vt 0.623889 0.899136
vt 0.378055 0.649136
vt 0.623889 0.649136
vt 0.623551 0.649136
vt 0.623551 0.649136
vt 0.623551 0.899136
vt 0.623551 0.899136
vn 0.000000 0.000000 1.000000
vn 0.000000 0.000000 1.000000
vn 0.000000 0.000000 1.000000
vn 0.000000 0.000000 1.000000
vn 0.000000 1.000000 0.000000
vn 0.000000 1.000000 0.000000
vn 0.000000 1.000000 0.000000
vn 0.000000 1.000000 0.000000
vn 0.000000 0.000000 -1.000000
vn 0.000000 0.000000 -1.000000
vn 0.000000 0.000000 -1.000000
vn 0.000000 0.000000 -1.000000
vn 0.000000 -1.000000 0.000000
vn 0.000000 -1.000000 0.000000
vn 0.000000 -1.000000 0.000000
vn 0.000000 -1.000000 0.000000
vn 1.000000 0.000000 0.000000
vn 1.000000 0.000000 0.000000
vn 1.000000 0.000000 0.000000
vn 1.000000 0.000000 0.000000
vn -1.000000 0.000000 0.000000
vn -1.000000 0.000000 0.000000
vn -1.000000 0.000000 0.000000
vn -1.000000 0.000000 0.000000
vn 0.000000 1.000000 0.000000
vn 0.000000 1.000000 0.000000
vn 0.000000 1.000000 0.000000
vn 0.000000 1.000000 0.000000
vn 1.000000 0.000000 0.000000
vn 1.000000 0.000000 0.000000
vn 1.000000 0.000000 0.000000
vn 1.000000 0.000000 0.000000
vn 0.000000 -1.000000 0.000000
vn 0.000000 -1.000000 0.000000
vn 0.000000 -1.000000 0.000000
vn 0.000000 -1.000000 0.000000
vn -1.000000 0.000000 0.000000
vn -1.000000 0.000000 0.000000
vn -1.000000 0.000000 0.000000
vn -1.000000 0.000000 0.000000
vn 0.000000 0.000000 1.000000
vn 0.000000 0.000000 1.000000
vn 0.000000 0.000000 1.000000
vn 0.000000 0.000000 1.000000
vn 0.000000 -1.000000 0.000000
vn 0.000000 -1.000000 0.000000
vn 0.000000 -1.000000 0.000000
vn 0.000000 -1.000000 0.000000
vn 0.000000 0.000000 -1.000000
vn 0.000000 0.000000 -1.000000
vn 0.000000 0.000000 -1.000000
vn 0.000000 0.000000 -1.000000
vn 0.000000 1.000000 0.000000
vn 0.000000 1.000000 0.000000
vn 0.000000 1.000000 0.000000
vn 0.000000 1.000000 0.000000
s off
g pCube1
usemtl initialShadingGroup
f 18/18/1 20/20/2 24/23/3 22/22/4
f 37/37/5 39/38/6 29/28/7 25/25/8
f 26/26/9 28/27/10 34/33/11 31/31/12
f 30/30/13 33/32/14 45/44/15 47/46/16
f 49/49/17 51/51/18 53/53/19 55/55/20
f 7/7/21 12/12/22 9/9/23 5/8/24
f 21/21/25 4/3/26 40/39/27 36/36/28
f 19/19/29 43/42/30 41/41/31 23/24/32
f 48/48/33 44/43/34 2/4/35 17/17/36
f 35/35/37 46/47/38 1/1/39 3/2/40
f 38/40/41 11/11/42 52/52/43 50/50/44
f 42/45/45 8/5/46 54/54/47 14/14/48
f 32/34/49 6/6/50 56/56/51 15/15/52
f 27/29/53 10/10/54 13/13/55 16/16/56
