# This file uses centimeters as units for non-parametric coordinates.

mtllib Podium.mtl
g default
v -0.873818 0.085104 0.873818
v 0.873818 0.085104 0.873818
v -0.873818 4.360083 0.873818
v 0.873818 4.360083 0.873818
v -0.873818 4.360083 -0.873818
v 0.873818 4.360083 -0.873818
v -0.873818 0.085104 -0.873818
v 0.873818 0.085104 -0.873818
vt 0.626343 0.630584
vt 0.626343 0.880584
vt 0.569160 0.055936
vt 0.625000 0.629607
vt 0.625000 0.625095
vt 0.625000 0.875095
vt 0.376343 0.630584
vt 0.376343 0.880584
vt 0.375000 0.875095
vt 0.373454 0.274807
vt 0.373788 0.630584
vt 0.623454 0.274807
vt 0.430840 0.055936
vt 0.373454 0.461132
vt 0.623454 0.461132
vt 0.373788 0.880584
vt 0.375000 0.629607
vt 0.430840 0.194255
vt 0.569160 0.194255
vt 0.623788 0.880584
vt 0.375000 0.625095
vt 0.375000 0.879607
vt 0.625000 0.879607
vt 0.623788 0.630584
vn 0.000000 0.000000 1.000000
vn 0.000000 0.000000 1.000000
vn 0.000000 0.000000 1.000000
vn 0.000000 0.000000 1.000000
vn 0.000000 1.000000 0.000000
vn 0.000000 1.000000 0.000000
vn 0.000000 1.000000 0.000000
vn 0.000000 1.000000 0.000000
vn 0.000000 0.000000 -1.000000
vn 0.000000 0.000000 -1.000000
vn 0.000000 0.000000 -1.000000
vn 0.000000 0.000000 -1.000000
vn 0.000000 -1.000000 0.000000
vn 0.000000 -1.000000 0.000000
vn 0.000000 -1.000000 0.000000
vn 0.000000 -1.000000 0.000000
vn 1.000000 0.000000 0.000000
vn 1.000000 0.000000 0.000000
vn 1.000000 0.000000 0.000000
vn 1.000000 0.000000 0.000000
vn -1.000000 0.000000 0.000000
vn -1.000000 0.000000 0.000000
vn -1.000000 0.000000 0.000000
vn -1.000000 0.000000 0.000000
s off
g pCube1
usemtl initialShadingGroup
f 1/10/1 2/12/2 4/15/3 3/14/4
f 3/13/5 4/3/6 6/19/7 5/18/8
f 5/17/9 6/4/10 8/23/11 7/22/12
f 7/21/13 8/5/14 2/6/15 1/9/16
f 2/11/17 8/24/18 6/20/19 4/16/20
f 7/7/21 1/1/22 3/2/23 5/8/24
g default
v 1.908390 0.085104 0.873818
v 3.656026 0.085104 0.873818
v 1.908390 3.053285 0.873818
v 3.656026 3.053285 0.873818
v 1.908390 3.053285 -0.873818
v 3.656026 3.053285 -0.873818
v 1.908390 0.085104 -0.873818
v 3.656026 0.085104 -0.873818
vt 0.973346 0.686610
vt 0.973346 0.936610
vt 0.586254 0.045624
vt 0.977359 0.694637
vt 0.977359 0.695326
vt 0.977359 0.945326
vt 0.723346 0.686610
vt 0.723346 0.936610
vt 0.727359 0.945326
vt 0.721149 0.262482
vt 0.731373 0.686610
vt 0.971149 0.262482
vt 0.413746 0.045624
vt 0.721149 0.474896
vt 0.971149 0.474896
vt 0.731373 0.936610
vt 0.727359 0.694637
vt 0.413746 0.218131
vt 0.586254 0.218131
vt 0.981373 0.936610
vt 0.727359 0.695326
vt 0.727359 0.944637
vt 0.977359 0.944637
vt 0.981373 0.686610
vn 0.000000 0.000000 1.000000
vn 0.000000 0.000000 1.000000
vn 0.000000 0.000000 1.000000
vn 0.000000 0.000000 1.000000
vn 0.000000 1.000000 0.000000
vn 0.000000 1.000000 0.000000
vn 0.000000 1.000000 0.000000
vn 0.000000 1.000000 0.000000
vn 0.000000 0.000000 -1.000000
vn 0.000000 0.000000 -1.000000
vn 0.000000 0.000000 -1.000000
vn 0.000000 0.000000 -1.000000
vn 0.000000 -1.000000 0.000000
vn 0.000000 -1.000000 0.000000
vn 0.000000 -1.000000 0.000000
vn 0.000000 -1.000000 0.000000
vn 1.000000 0.000000 0.000000
vn 1.000000 0.000000 0.000000
vn 1.000000 0.000000 0.000000
vn 1.000000 0.000000 0.000000
vn -1.000000 0.000000 0.000000
vn -1.000000 0.000000 0.000000
vn -1.000000 0.000000 0.000000
vn -1.000000 0.000000 0.000000
s off
g pasted__pCube1 group
usemtl initialShadingGroup
f 9/34/25 10/36/26 12/39/27 11/38/28
f 11/37/29 12/27/30 14/43/31 13/42/32
f 13/41/33 14/28/34 16/47/35 15/46/36
f 15/45/37 16/29/38 10/30/39 9/33/40
f 10/35/41 16/48/42 14/44/43 12/40/44
f 15/31/45 9/25/46 11/26/47 13/32/48
g default
v -3.903886 0.085104 0.873818
v -2.156249 0.085104 0.873818
v -3.903886 2.887724 0.873818
v -2.156249 2.887724 0.873818
v -3.903886 2.887724 -0.873818
v -2.156249 2.887724 -0.873818
v -3.903886 0.085104 -0.873818
v -2.156249 0.085104 -0.873818
vt 0.303378 0.690573
vt 0.303378 0.940573
vt 0.571439 0.026657
vt 0.308792 0.691169
vt 0.306099 0.693180
vt 0.306099 0.943180
vt 0.053378 0.690573
vt 0.053378 0.940573
vt 0.056099 0.943180
vt 0.069334 0.262906
vt 0.058502 0.690573
vt 0.246400 0.262906
vt 0.428561 0.026657
vt 0.069334 0.488400
vt 0.246400 0.488400
vt 0.058502 0.940573
vt 0.058792 0.691169
vt 0.428561 0.169534
vt 0.571439 0.169534
vt 0.308502 0.940573
vt 0.056099 0.693180
vt 0.058792 0.941169
vt 0.308792 0.941169
vt 0.308502 0.690573
vn 0.000000 0.000000 1.000000
vn 0.000000 0.000000 1.000000
vn 0.000000 0.000000 1.000000
vn 0.000000 0.000000 1.000000
vn 0.000000 1.000000 0.000000
vn 0.000000 1.000000 0.000000
vn 0.000000 1.000000 0.000000
vn 0.000000 1.000000 0.000000
vn 0.000000 0.000000 -1.000000
vn 0.000000 0.000000 -1.000000
vn 0.000000 0.000000 -1.000000
vn 0.000000 0.000000 -1.000000
vn 0.000000 -1.000000 0.000000
vn 0.000000 -1.000000 0.000000
vn 0.000000 -1.000000 0.000000
vn 0.000000 -1.000000 0.000000
vn 1.000000 0.000000 0.000000
vn 1.000000 0.000000 0.000000
vn 1.000000 0.000000 0.000000
vn 1.000000 0.000000 0.000000
vn -1.000000 0.000000 0.000000
vn -1.000000 0.000000 0.000000
vn -1.000000 0.000000 0.000000
vn -1.000000 0.000000 0.000000
s off
g pasted__pasted__pCube1 pasted__group group1
usemtl initialShadingGroup
f 17/58/49 18/60/50 20/63/51 19/62/52
f 19/61/53 20/51/54 22/67/55 21/66/56
f 21/65/57 22/52/58 24/71/59 23/70/60
f 23/69/61 24/53/62 18/54/63 17/57/64
f 18/59/65 24/72/66 22/68/67 20/64/68
f 23/55/69 17/49/70 19/50/71 21/56/72
