# This file uses centimeters as units for non-parametric coordinates.

mtllib Iei.mtl
g default
v -11.000000 -1.500000 13.000000
v 11.000000 -1.500000 13.000000
v -11.000000 1.500000 13.000000
v 11.000000 1.500000 13.000000
v -11.000000 1.500000 -13.000000
v 11.000000 1.500000 -13.000000
v -11.000000 -1.500000 -13.000000
v 11.000000 -1.500000 -13.000000
v -11.000000 -1.500000 13.000000
v -11.000000 -1.500000 13.000000
v 11.000000 -1.500000 13.000000
v 11.000000 -1.500000 13.000000
v -11.000000 1.500000 13.000000
v -11.000000 1.500000 13.000000
v 11.000000 1.500000 13.000000
v 11.000000 1.500000 13.000000
v -11.000000 1.500000 -13.000000
v -11.000000 1.500000 -13.000000
v 11.000000 1.500000 -13.000000
v 11.000000 1.500000 -13.000000
v -11.000000 -1.500000 -13.000000
v -11.000000 -1.500000 -13.000000
v 11.000000 -1.500000 -13.000000
v 11.000000 -1.500000 -13.000000
vt 0.893263 0.025254
vt 0.776302 0.075225
vt 0.962192 0.016766
vt 0.895932 0.025035
vt 0.943576 0.015855
vt 0.943576 0.977792
vt 0.147283 0.027294
vt 0.251825 0.075225
vt 0.043357 0.977792
vt 0.149951 0.027294
vt 0.145121 0.027294
vt 0.895932 0.025254
vt 0.047374 0.023310
vt 0.254494 0.075225
vt 0.778971 0.075225
vt 0.249664 0.075225
vt 0.149951 0.027075
vt 0.033452 0.977765
vt 0.955798 0.977428
vt 0.774141 0.075225
vt 0.043357 0.015855
vt 0.254494 0.075006
vt 0.778971 0.075006
vt 0.891102 0.025254
vn 0.000000 0.000000 1.000000
vn 0.000000 0.000000 1.000000
vn 0.000000 0.000000 1.000000
vn 0.000000 0.000000 1.000000
vn 0.000000 1.000000 0.000000
vn 0.000000 1.000000 0.000000
vn 0.000000 1.000000 0.000000
vn 0.000000 1.000000 0.000000
vn 0.000000 0.000000 -1.000000
vn 0.000000 0.000000 -1.000000
vn 0.000000 0.000000 -1.000000
vn 0.000000 0.000000 -1.000000
vn 0.000000 -1.000000 0.000000
vn 0.000000 -1.000000 0.000000
vn 0.000000 -1.000000 0.000000
vn 0.000000 -1.000000 0.000000
vn 1.000000 0.000000 0.000000
vn 1.000000 0.000000 0.000000
vn 1.000000 0.000000 0.000000
vn 1.000000 0.000000 0.000000
vn -1.000000 0.000000 0.000000
vn -1.000000 0.000000 0.000000
vn -1.000000 0.000000 0.000000
vn -1.000000 0.000000 0.000000
s off
g pCube1
usemtl initialShadingGroup
f 10/10/1 12/12/2 16/15/3 14/14/4
f 13/13/5 4/3/6 20/19/7 18/18/8
f 17/17/9 6/4/10 24/23/11 22/22/12
f 21/21/13 8/5/14 2/6/15 9/9/16
f 11/11/17 23/24/18 19/20/19 15/16/20
f 7/7/21 1/1/22 3/2/23 5/8/24
