# This file uses centimeters as units for non-parametric coordinates.

mtllib ‚·‚¸‚è.mtl
g default
v -2.000000 -0.500000 4.000000
v 2.000000 -0.500000 4.000000
v -2.000000 0.500000 4.000000
v 2.000000 0.500000 4.000000
v -2.000000 0.500000 -4.000000
v 2.000000 0.500000 -4.000000
v -2.000000 -0.500000 -4.000000
v 2.000000 -0.500000 -4.000000
v -1.839180 0.348846 3.678360
v 1.839180 0.348846 3.678360
v 1.839180 0.101052 -3.678360
v -1.839180 0.101052 -3.678360
v -2.000000 0.500000 -1.675256
v -1.839180 0.101052 -1.540548
v 1.839180 0.101052 -1.540548
v 2.000000 0.500000 -1.675256
v 2.000000 -0.500000 -1.675256
v -2.000000 -0.500000 -1.675256
v -2.000000 0.500000 -1.262562
v -1.839180 0.348846 -1.161040
v 1.839180 0.348846 -1.161040
v 2.000000 0.500000 -1.262562
v 2.000000 -0.500000 -1.262561
v -2.000000 -0.500000 -1.262561
vt 0.375000 0.000000
vt 0.625000 0.000000
vt 0.375000 0.250000
vt 0.625000 0.250000
vt 0.375000 0.500000
vt 0.625000 0.500000
vt 0.375000 0.750000
vt 0.625000 0.750000
vt 0.375000 1.000000
vt 0.625000 1.000000
vt 0.875000 0.000000
vt 0.875000 0.250000
vt 0.125000 0.000000
vt 0.125000 0.250000
vt 0.375000 0.250000
vt 0.625000 0.250000
vt 0.625000 0.500000
vt 0.375000 0.500000
vt 0.197648 0.250000
vt 0.375000 0.427352
vt 0.375000 0.427352
vt 0.625000 0.427352
vt 0.625000 0.427352
vt 0.802352 0.250000
vt 0.625000 0.822648
vt 0.802352 0.000000
vt 0.197648 0.000000
vt 0.375000 0.822648
vt 0.210545 0.250000
vt 0.375000 0.414455
vt 0.375000 0.414455
vt 0.625000 0.414455
vt 0.625000 0.414455
vt 0.789455 0.250000
vt 0.625000 0.835545
vt 0.789455 0.000000
vt 0.210545 0.000000
vt 0.375000 0.835545
vn 0.000000 0.000000 1.000000
vn 0.000000 0.000000 1.000000
vn 0.000000 0.000000 1.000000
vn 0.000000 0.000000 1.000000
vn 0.000000 0.995190 -0.097962
vn 0.000000 0.995190 -0.097962
vn 0.000000 1.000000 0.000000
vn 0.000000 1.000000 0.000000
vn 0.000000 0.000000 -1.000000
vn 0.000000 0.000000 -1.000000
vn 0.000000 0.000000 -1.000000
vn 0.000000 0.000000 -1.000000
vn 0.000000 -1.000000 0.000000
vn 0.000000 -1.000000 0.000000
vn 0.000000 -1.000000 0.000000
vn 0.000000 -1.000000 0.000000
vn 0.000000 -1.000000 0.000000
vn 0.000000 -1.000000 0.000000
vn 0.000000 -1.000000 0.000000
vn 0.000000 -1.000000 0.000000
vn 1.000000 0.000000 0.000000
vn 1.000000 0.000000 0.000000
vn 1.000000 0.000000 0.000000
vn 1.000000 0.000000 0.000000
vn 1.000000 0.000000 0.000000
vn 1.000000 0.000000 0.000000
vn 1.000000 0.000000 0.000000
vn 1.000000 0.000000 0.000000
vn -1.000000 0.000000 0.000000
vn -1.000000 0.000000 0.000000
vn -1.000000 0.000000 0.000000
vn -1.000000 0.000000 0.000000
vn -1.000000 0.000000 0.000000
vn -1.000000 0.000000 0.000000
vn -1.000000 0.000000 0.000000
vn -1.000000 0.000000 0.000000
vn 0.000000 0.905042 -0.425322
vn 0.000000 0.905042 -0.425322
vn 0.000000 0.905042 -0.425322
vn 0.000000 0.905042 -0.425322
vn -0.821194 0.570575 -0.009207
vn -0.821194 0.570575 -0.009207
vn -0.821194 0.570575 -0.009207
vn -0.821194 0.570575 -0.009207
vn -0.821194 0.570575 -0.009207
vn -0.821194 0.570575 -0.009207
vn -0.821194 0.570575 -0.009207
vn -0.821194 0.570575 -0.009207
vn 0.000000 0.627643 0.778501
vn 0.000000 0.627643 0.778501
vn 0.000000 0.627643 0.778501
vn 0.000000 0.627643 0.778501
vn 0.821194 0.570575 -0.009207
vn 0.821194 0.570575 -0.009207
vn 0.821194 0.570575 -0.009207
vn 0.821194 0.570575 -0.009207
vn 0.821194 0.570575 -0.009207
vn 0.821194 0.570575 -0.009207
vn 0.821194 0.570575 -0.009207
vn 0.821194 0.570575 -0.009207
vn 0.000000 0.998875 -0.047427
vn 0.000000 0.998875 -0.047427
vn 0.000000 1.000000 0.000000
vn 0.000000 1.000000 0.000000
s off
g pCube1
usemtl initialShadingGroup
f 1/1/1 2/2/2 4/4/3 3/3/4
s 1
f 14/21/5 15/22/6 11/17/7 12/18/8
s off
f 5/5/9 6/6/10 8/8/11 7/7/12
f 24/38/13 18/28/14 7/7/15 8/8/16 17/25/17 23/35/18 2/10/19 1/9/20
f 23/36/21 17/26/22 8/11/23 6/12/24 16/24/25 22/34/26 4/4/27 2/2/28
f 19/29/29 13/19/30 5/14/31 7/13/32 18/27/33 24/37/34 1/1/35 3/3/36
f 3/3/37 4/4/38 10/16/39 9/15/40
f 22/33/41 16/23/42 6/6/43 11/17/44 15/22/45 21/32/46 10/16/47 4/4/48
f 6/6/49 5/5/50 12/18/51 11/17/52
f 20/31/53 14/21/54 12/18/55 5/5/56 13/20/57 19/30/58 3/3/59 9/15/60
s 1
f 20/31/61 21/32/62 15/22/6 14/21/5
f 9/15/63 10/16/64 21/32/62 20/31/61
