# This file uses centimeters as units for non-parametric coordinates.

mtllib bench.mtl
g default
v -2.698187 3.300510 -4.863033
v 2.818798 3.387048 -4.863033
v -2.706294 3.817314 -4.863033
v 2.810691 3.903852 -4.863033
v -2.706294 3.817314 -5.379900
v 2.810691 3.903852 -5.379900
v -2.698187 3.300510 -5.379900
v 2.818798 3.387048 -5.379900
v -1.727805 3.315732 -4.863033
v -1.727805 3.315732 -5.379900
v -1.127672 3.325145 -4.863033
v -1.127672 3.325145 -5.379900
v 1.746487 3.370228 -4.863033
v 1.746487 3.370228 -5.379900
v 2.251225 3.378145 -4.863033
v 2.251225 3.378145 -5.379900
v -2.302685 3.823645 -5.379900
v -2.302685 3.823645 -4.863033
v -4.037021 7.649868 -4.863033
v -3.633412 7.656199 -4.863033
v -3.633412 7.656199 -5.379900
v -4.037021 7.649868 -5.379900
v -1.676332 0.000783 -4.863033
v -1.676332 0.011012 -5.379900
v -1.076199 0.020426 -5.379900
v -1.076199 -0.000032 -4.863033
v 1.797958 0.065509 -5.379900
v 1.797958 0.004136 -4.863033
v 2.302697 0.011538 -5.379900
v 2.302697 0.001824 -4.863033
vt 0.234360 0.805232
vt 0.234313 0.790787
vt 0.499994 0.818013
vt 0.367199 0.818444
vt 0.366800 0.695364
vt 0.499595 0.694933
vt 0.632473 0.720313
vt 0.632698 0.789495
vt 0.632745 0.803940
vt 0.632434 0.708164
vt 0.765539 0.803509
vt 0.632745 0.803940
vt 0.632698 0.789495
vt 0.765493 0.789064
vt 0.234005 0.695794
vt 0.233574 0.562999
vt 0.366369 0.562569
vt 0.234866 0.961384
vt 0.234435 0.828589
vt 0.367230 0.828159
vt 0.367661 0.960954
vt 0.765539 0.803509
vt 0.765615 0.826867
vt 0.632820 0.827297
vt 0.234088 0.721605
vt 0.234049 0.709456
vt 0.765493 0.789064
vt 0.765268 0.719882
vt 0.765268 0.719882
vt 0.632473 0.720313
vt 0.632434 0.708164
vt 0.765229 0.707733
vt 0.632390 0.694502
vt 0.765229 0.707733
vt 0.765185 0.694071
vt 0.500025 0.827728
vt 0.367230 0.828159
vt 0.367199 0.818444
vt 0.499994 0.818013
vt 0.500025 0.827728
vn -0.000000 0.000000 1.000000
vn -0.000000 0.000000 1.000000
vn -0.000000 0.000000 1.000000
vn -0.000000 0.000000 1.000000
vn -0.000000 0.000000 1.000000
vn -0.000000 0.000000 1.000000
vn -0.000000 0.000000 1.000000
vn -0.000000 0.000000 1.000000
vn -0.000000 0.000000 1.000000
vn -0.015684 0.999877 0.000000
vn -0.015684 0.999877 0.000000
vn -0.015684 0.999877 0.000000
vn -0.015684 0.999877 0.000000
vn 0.000000 0.000000 -1.000000
vn -0.000000 0.000000 -1.000000
vn -0.000000 0.000000 -1.000000
vn -0.000000 0.000000 -1.000000
vn -0.000000 0.000000 -1.000000
vn -0.000000 0.000000 -1.000000
vn -0.000000 0.000000 -1.000000
vn -0.000000 0.000000 -1.000000
vn 0.000000 0.000000 -1.000000
vn 0.007160 -0.999534 -0.029672
vn 0.007160 -0.999534 -0.029672
vn 0.007160 -0.999534 -0.029672
vn 0.007160 -0.999534 -0.029672
vn 0.999877 0.015684 0.000000
vn 0.999877 0.015684 0.000000
vn 0.999877 0.015684 0.000000
vn 0.999877 0.015684 0.000000
vn -0.999877 -0.015684 0.000000
vn -0.999877 -0.015684 0.000000
vn -0.955744 -0.294200 0.000000
vn -0.955744 -0.294200 0.000000
vn 0.015684 -0.999877 0.000000
vn 0.015684 -0.999877 0.000000
vn 0.015684 -0.999877 0.000000
vn 0.015684 -0.999877 0.000000
vn 0.015684 -0.999877 0.000000
vn 0.015684 -0.999877 0.000000
vn 0.015684 -0.999877 0.000000
vn 0.015684 -0.999877 0.000000
vn -0.055537 -0.996104 -0.068499
vn -0.055537 -0.996104 -0.068499
vn -0.055537 -0.996104 -0.068499
vn -0.055537 -0.996104 -0.068499
vn 0.015684 -0.999877 0.000000
vn 0.015684 -0.999877 0.000000
vn 0.015684 -0.999877 0.000000
vn 0.015684 -0.999877 0.000000
vn -0.015683 0.999877 0.000000
vn -0.015683 0.999877 0.000000
vn -0.015683 0.999877 0.000000
vn -0.015683 0.999877 0.000000
vn 0.000000 0.000000 1.000000
vn 0.000000 0.000000 1.000000
vn 0.944675 0.328007 0.000000
vn 0.944675 0.328007 0.000000
vn 0.944675 0.328007 0.000000
vn 0.944675 0.328007 0.000000
vn 0.000001 0.000000 -1.000000
vn 0.000001 0.000000 -1.000000
vn -0.944675 -0.328007 0.000000
vn -0.944675 -0.328007 0.000000
vn -0.999879 -0.015550 -0.000154
vn -0.999879 -0.015550 -0.000154
vn -0.999879 -0.015550 -0.000154
vn -0.999879 -0.015550 -0.000154
vn 0.000000 0.000000 -1.000000
vn 0.000000 0.000000 -1.000000
vn 0.999879 0.015526 0.000307
vn 0.999879 0.015526 0.000307
vn 0.999879 0.015526 0.000307
vn 0.999879 0.015526 0.000307
vn 0.000000 0.000000 1.000000
vn 0.000000 0.000000 1.000000
vn -0.999881 -0.015430 -0.000916
vn -0.999881 -0.015430 -0.000916
vn -0.999881 -0.015430 -0.000916
vn -0.999881 -0.015430 -0.000916
vn 0.000000 0.000000 -1.000000
vn 0.000000 0.000000 -1.000000
vn 0.999884 0.015265 0.000143
vn 0.999884 0.015265 0.000143
vn 0.999884 0.015265 0.000143
vn 0.999884 0.015265 0.000143
vn -0.000001 0.000000 1.000000
vn -0.000001 0.000000 1.000000
s 1
g polySurface2 pCube5
usemtl initialShadingGroup
f 18/4/1 3/20/2 1/19/3 9/1/4 11/2/5 13/25/6 15/26/7 2/15/8 4/5/9
s off
f 17/3/10 18/4/11 4/5/12 6/6/13
s 2
f 17/3/14 6/6/15 8/33/16 16/10/17 14/7/18 12/8/19 10/9/20 7/24/21 5/36/22
s off
f 23/11/23 24/12/24 25/13/25 26/14/26
f 2/15/27 8/16/28 6/17/29 4/5/30
s 3
f 7/18/31 1/19/32 3/20/33 5/21/34
s off
f 7/24/35 10/9/36 9/22/37 1/23/38
f 11/27/39 12/8/40 14/7/41 13/28/42
f 28/29/43 27/30/44 29/31/45 30/32/46
f 15/34/47 16/10/48 8/33/49 2/35/50
f 19/37/51 20/38/52 21/39/53 22/40/54
s 1
f 3/20/2 18/4/1 20/38/55 19/37/56
s off
f 18/4/57 17/3/58 21/39/59 20/38/60
s 2
f 17/3/14 5/36/22 22/40/61 21/39/62
s 3
f 5/36/34 3/20/33 19/37/63 22/40/64
s off
f 9/22/65 10/9/66 24/12/67 23/11/68
s 2
f 10/9/20 12/8/19 25/13/69 24/12/70
s off
f 12/8/71 11/27/72 26/14/73 25/13/74
s 1
f 11/27/5 9/22/4 23/11/75 26/14/76
s off
f 13/28/77 14/7/78 27/30/79 28/29/80
s 2
f 14/7/18 16/10/17 29/31/81 27/30/82
s off
f 16/10/83 15/34/84 30/32/85 29/31/86
s 1
f 15/34/7 13/28/6 28/29/87 30/32/88
g default
v 0.714481 3.781104 6.092116
v 2.986383 3.781104 6.092116
v 0.714481 4.196534 6.092116
v 2.986383 4.196534 6.092116
v 0.714481 4.196534 -6.092116
v 2.986383 4.196534 -6.092116
v 0.714481 3.781104 -6.092116
v 2.986383 3.781104 -6.092116
vt 0.263964 0.288636
vt 0.263400 0.170635
vt 0.381402 0.170072
vt 0.381965 0.288073
vt 0.499403 0.169508
vt 0.499967 0.287510
vt 0.617405 0.168945
vt 0.617968 0.286947
vt 0.735406 0.168382
vt 0.735970 0.286383
vt 0.262837 0.052633
vt 0.380839 0.052070
vt 0.264527 0.406638
vt 0.382528 0.406075
vn 0.000000 0.000000 1.000000
vn 0.000000 0.000000 1.000000
vn 0.000000 0.000000 1.000000
vn 0.000000 0.000000 1.000000
vn 0.000000 1.000000 0.000000
vn 0.000000 1.000000 0.000000
vn 0.000000 1.000000 0.000000
vn 0.000000 1.000000 0.000000
vn 0.000000 0.000000 -1.000000
vn 0.000000 0.000000 -1.000000
vn 0.000000 0.000000 -1.000000
vn 0.000000 0.000000 -1.000000
vn 0.000000 -1.000000 0.000000
vn 0.000000 -1.000000 0.000000
vn 0.000000 -1.000000 0.000000
vn 0.000000 -1.000000 0.000000
vn 1.000000 0.000000 0.000000
vn 1.000000 0.000000 0.000000
vn 1.000000 0.000000 0.000000
vn 1.000000 0.000000 0.000000
vn -1.000000 0.000000 0.000000
vn -1.000000 0.000000 0.000000
vn -1.000000 0.000000 0.000000
vn -1.000000 0.000000 0.000000
s off
g pCube5 polySurface3
usemtl initialShadingGroup
f 31/41/89 32/42/90 34/43/91 33/44/92
f 33/44/93 34/43/94 36/45/95 35/46/96
f 35/46/97 36/45/98 38/47/99 37/48/100
f 37/48/101 38/47/102 32/49/103 31/50/104
f 32/42/105 38/51/106 36/52/107 34/43/108
f 37/53/109 31/41/110 33/44/111 35/54/112
g default
v -2.307437 3.781104 6.092116
v -0.146766 3.781104 6.092116
v -2.307437 4.196534 6.092116
v -0.146766 4.196534 6.092116
v -2.307437 4.196534 -6.092116
v -0.146766 4.196534 -6.092116
v -2.307437 3.781104 -6.092116
v -0.146766 3.781104 -6.092116
vt 0.263964 0.288636
vt 0.263400 0.170635
vt 0.381402 0.170072
vt 0.381965 0.288073
vt 0.499403 0.169508
vt 0.499967 0.287510
vt 0.617405 0.168945
vt 0.617968 0.286947
vt 0.735406 0.168382
vt 0.735970 0.286383
vt 0.262837 0.052633
vt 0.380839 0.052070
vt 0.264527 0.406638
vt 0.382528 0.406075
vn 0.000000 0.000000 1.000000
vn 0.000000 0.000000 1.000000
vn 0.000000 0.000000 1.000000
vn 0.000000 0.000000 1.000000
vn 0.000000 1.000000 0.000000
vn 0.000000 1.000000 0.000000
vn 0.000000 1.000000 0.000000
vn 0.000000 1.000000 0.000000
vn 0.000000 0.000000 -1.000000
vn 0.000000 0.000000 -1.000000
vn 0.000000 0.000000 -1.000000
vn 0.000000 0.000000 -1.000000
vn 0.000000 -1.000000 0.000000
vn 0.000000 -1.000000 0.000000
vn 0.000000 -1.000000 0.000000
vn 0.000000 -1.000000 0.000000
vn 1.000000 0.000000 0.000000
vn 1.000000 0.000000 0.000000
vn 1.000000 0.000000 0.000000
vn 1.000000 0.000000 0.000000
vn -1.000000 0.000000 0.000000
vn -1.000000 0.000000 0.000000
vn -1.000000 0.000000 0.000000
vn -1.000000 0.000000 0.000000
s off
g pCube5 polySurface4
usemtl initialShadingGroup
f 39/55/113 40/56/114 42/57/115 41/58/116
f 41/58/117 42/57/118 44/59/119 43/60/120
f 43/60/121 44/59/122 46/61/123 45/62/124
f 45/62/125 46/61/126 40/63/127 39/64/128
f 40/56/129 46/65/130 44/66/131 42/57/132
f 45/67/133 39/55/134 41/58/135 43/68/136
g default
v -3.058338 6.020543 6.092116
v -2.613541 4.675616 6.092116
v -2.710472 6.135590 6.092116
v -2.265675 4.790663 6.092116
v -2.710472 6.135590 -6.092116
v -2.265675 4.790663 -6.092116
v -3.058338 6.020543 -6.092116
v -2.613541 4.675616 -6.092116
vt 0.263964 0.288636
vt 0.263400 0.170635
vt 0.381402 0.170072
vt 0.381965 0.288073
vt 0.499403 0.169508
vt 0.499967 0.287510
vt 0.617405 0.168945
vt 0.617968 0.286947
vt 0.735406 0.168382
vt 0.735970 0.286383
vt 0.262837 0.052633
vt 0.380839 0.052070
vt 0.264527 0.406638
vt 0.382528 0.406075
vn 0.000000 0.000000 1.000000
vn 0.000000 0.000000 1.000000
vn 0.000000 0.000000 1.000000
vn 0.000000 0.000000 1.000000
vn 0.949425 0.313995 0.000000
vn 0.949425 0.313995 0.000000
vn 0.949425 0.313995 0.000000
vn 0.949425 0.313995 0.000000
vn 0.000001 0.000000 -1.000000
vn 0.000001 0.000000 -1.000000
vn 0.000001 0.000000 -1.000000
vn 0.000001 0.000000 -1.000000
vn -0.949425 -0.313995 0.000000
vn -0.949425 -0.313995 0.000000
vn -0.949425 -0.313995 0.000000
vn -0.949425 -0.313995 0.000000
vn 0.313996 -0.949425 0.000000
vn 0.313996 -0.949425 0.000000
vn 0.313996 -0.949425 0.000000
vn 0.313996 -0.949425 0.000000
vn -0.313996 0.949425 0.000000
vn -0.313996 0.949425 0.000000
vn -0.313996 0.949425 0.000000
vn -0.313996 0.949425 0.000000
s off
g pCube5 polySurface5
usemtl initialShadingGroup
f 47/69/137 48/70/138 50/71/139 49/72/140
f 49/72/141 50/71/142 52/73/143 51/74/144
f 51/74/145 52/73/146 54/75/147 53/76/148
f 53/76/149 54/75/150 48/77/151 47/78/152
f 48/70/153 54/79/154 52/80/155 50/71/156
f 53/81/157 47/69/158 49/72/159 51/82/160
g default
v -3.737179 7.984931 6.092116
v -3.292382 6.640003 6.092116
v -3.389313 8.099977 6.092116
v -2.944516 6.755050 6.092116
v -3.389313 8.099977 -6.092116
v -2.944516 6.755050 -6.092116
v -3.737179 7.984931 -6.092116
v -3.292382 6.640003 -6.092116
vt 0.263964 0.288636
vt 0.263400 0.170635
vt 0.381402 0.170072
vt 0.381965 0.288073
vt 0.499403 0.169508
vt 0.499967 0.287510
vt 0.617405 0.168945
vt 0.617968 0.286947
vt 0.735406 0.168382
vt 0.735970 0.286383
vt 0.262837 0.052633
vt 0.380839 0.052070
vt 0.264527 0.406638
vt 0.382528 0.406075
vn 0.000000 0.000000 1.000000
vn 0.000000 0.000000 1.000000
vn 0.000000 0.000000 1.000000
vn 0.000000 0.000000 1.000000
vn 0.949425 0.313996 0.000000
vn 0.949425 0.313996 0.000000
vn 0.949425 0.313996 0.000000
vn 0.949425 0.313996 0.000000
vn 0.000001 0.000000 -1.000000
vn 0.000001 0.000000 -1.000000
vn 0.000001 0.000000 -1.000000
vn 0.000001 0.000000 -1.000000
vn -0.949425 -0.313995 0.000000
vn -0.949425 -0.313995 0.000000
vn -0.949425 -0.313995 0.000000
vn -0.949425 -0.313995 0.000000
vn 0.313995 -0.949425 0.000000
vn 0.313995 -0.949425 0.000000
vn 0.313995 -0.949425 0.000000
vn 0.313995 -0.949425 0.000000
vn -0.313996 0.949425 0.000000
vn -0.313996 0.949425 0.000000
vn -0.313996 0.949425 0.000000
vn -0.313996 0.949425 0.000000
s off
g pCube5 polySurface6
usemtl initialShadingGroup
f 55/83/161 56/84/162 58/85/163 57/86/164
f 57/86/165 58/85/166 60/87/167 59/88/168
f 59/88/169 60/87/170 62/89/171 61/90/172
f 61/90/173 62/89/174 56/91/175 55/92/176
f 56/84/177 62/93/178 60/94/179 58/85/180
f 61/95/181 55/83/182 57/86/183 59/96/184
g default
v -2.698187 3.300510 5.544624
v 2.818798 3.387048 5.544624
v -2.706294 3.817314 5.544624
v 2.810691 3.903852 5.544624
v -2.706294 3.817314 5.027757
v 2.810691 3.903852 5.027757
v -2.698187 3.300510 5.027757
v 2.818798 3.387048 5.027757
v -1.727805 3.315732 5.544624
v -1.727805 3.315732 5.027757
v -1.127672 3.325145 5.544624
v -1.127672 3.325145 5.027757
v 1.746487 3.370228 5.544624
v 1.746487 3.370228 5.027757
v 2.251225 3.378145 5.544624
v 2.251225 3.378145 5.027757
v -2.302685 3.823645 5.027757
v -2.302685 3.823645 5.544624
v -4.037021 7.649868 5.544624
v -3.633412 7.656199 5.544624
v -3.633412 7.656199 5.027757
v -4.037021 7.649868 5.027757
v -1.676332 0.000783 5.544624
v -1.676332 0.011012 5.027757
v -1.076199 0.020426 5.027757
v -1.076199 -0.000032 5.544624
v 1.797958 0.065509 5.027757
v 1.797958 0.004136 5.544624
v 2.302697 0.011538 5.027757
v 2.302697 0.001824 5.544624
vt 0.234360 0.805232
vt 0.234313 0.790787
vt 0.499994 0.818013
vt 0.367199 0.818444
vt 0.366800 0.695364
vt 0.499595 0.694933
vt 0.632473 0.720313
vt 0.632698 0.789495
vt 0.632745 0.803940
vt 0.632434 0.708164
vt 0.765539 0.803509
vt 0.632745 0.803940
vt 0.632698 0.789495
vt 0.765493 0.789064
vt 0.234005 0.695794
vt 0.233574 0.562999
vt 0.366369 0.562569
vt 0.234866 0.961384
vt 0.234435 0.828589
vt 0.367230 0.828159
vt 0.367661 0.960954
vt 0.765539 0.803509
vt 0.765615 0.826867
vt 0.632820 0.827297
vt 0.234088 0.721605
vt 0.234049 0.709456
vt 0.765493 0.789064
vt 0.765268 0.719882
vt 0.765268 0.719882
vt 0.632473 0.720313
vt 0.632434 0.708164
vt 0.765229 0.707733
vt 0.632390 0.694502
vt 0.765229 0.707733
vt 0.765185 0.694071
vt 0.500025 0.827728
vt 0.367230 0.828159
vt 0.367199 0.818444
vt 0.499994 0.818013
vt 0.500025 0.827728
vn -0.000000 0.000000 1.000000
vn -0.000000 0.000000 1.000000
vn -0.000000 0.000000 1.000000
vn -0.000000 0.000000 1.000000
vn -0.000000 0.000000 1.000000
vn -0.000000 0.000000 1.000000
vn -0.000000 0.000000 1.000000
vn -0.000000 0.000000 1.000000
vn -0.000000 0.000000 1.000000
vn -0.015684 0.999877 0.000000
vn -0.015684 0.999877 0.000000
vn -0.015684 0.999877 0.000000
vn -0.015684 0.999877 0.000000
vn 0.000000 0.000000 -1.000000
vn -0.000000 0.000000 -1.000000
vn -0.000000 0.000000 -1.000000
vn -0.000000 0.000000 -1.000000
vn -0.000000 0.000000 -1.000000
vn -0.000000 0.000000 -1.000000
vn -0.000000 0.000000 -1.000000
vn -0.000000 0.000000 -1.000000
vn 0.000000 0.000000 -1.000000
vn 0.007160 -0.999534 -0.029672
vn 0.007160 -0.999534 -0.029672
vn 0.007160 -0.999534 -0.029672
vn 0.007160 -0.999534 -0.029672
vn 0.999877 0.015684 0.000000
vn 0.999877 0.015684 0.000000
vn 0.999877 0.015684 0.000000
vn 0.999877 0.015684 0.000000
vn -0.999877 -0.015684 0.000000
vn -0.999877 -0.015684 0.000000
vn -0.955744 -0.294200 0.000000
vn -0.955744 -0.294200 0.000000
vn 0.015684 -0.999877 0.000000
vn 0.015684 -0.999877 0.000000
vn 0.015684 -0.999877 0.000000
vn 0.015684 -0.999877 0.000000
vn 0.015684 -0.999877 0.000000
vn 0.015684 -0.999877 0.000000
vn 0.015684 -0.999877 0.000000
vn 0.015684 -0.999877 0.000000
vn -0.055537 -0.996104 -0.068499
vn -0.055537 -0.996104 -0.068499
vn -0.055537 -0.996104 -0.068499
vn -0.055537 -0.996104 -0.068499
vn 0.015684 -0.999877 0.000000
vn 0.015684 -0.999877 0.000000
vn 0.015684 -0.999877 0.000000
vn 0.015684 -0.999877 0.000000
vn -0.015683 0.999877 0.000000
vn -0.015683 0.999877 0.000000
vn -0.015683 0.999877 0.000000
vn -0.015683 0.999877 0.000000
vn 0.000000 0.000000 1.000000
vn 0.000000 0.000000 1.000000
vn 0.944675 0.328007 0.000000
vn 0.944675 0.328007 0.000000
vn 0.944675 0.328007 0.000000
vn 0.944675 0.328007 0.000000
vn 0.000001 0.000000 -1.000000
vn 0.000001 0.000000 -1.000000
vn -0.944675 -0.328007 0.000000
vn -0.944675 -0.328007 0.000000
vn -0.999879 -0.015550 -0.000154
vn -0.999879 -0.015550 -0.000154
vn -0.999879 -0.015550 -0.000154
vn -0.999879 -0.015550 -0.000154
vn 0.000000 0.000000 -1.000000
vn 0.000000 0.000000 -1.000000
vn 0.999879 0.015526 0.000307
vn 0.999879 0.015526 0.000307
vn 0.999879 0.015526 0.000307
vn 0.999879 0.015526 0.000307
vn 0.000000 0.000000 1.000000
vn 0.000000 0.000000 1.000000
vn -0.999881 -0.015430 -0.000916
vn -0.999881 -0.015430 -0.000916
vn -0.999881 -0.015430 -0.000916
vn -0.999881 -0.015430 -0.000916
vn 0.000000 0.000000 -1.000000
vn 0.000000 0.000000 -1.000000
vn 0.999884 0.015265 0.000143
vn 0.999884 0.015265 0.000143
vn 0.999884 0.015265 0.000143
vn 0.999884 0.015265 0.000143
vn -0.000001 0.000000 1.000000
vn -0.000001 0.000000 1.000000
s 1
g pasted__polySurface2 pasted__pCube5 group20
usemtl initialShadingGroup
f 80/100/185 65/116/186 63/115/187 71/97/188 73/98/189 75/121/190 77/122/191 64/111/192 66/101/193
s off
f 79/99/194 80/100/195 66/101/196 68/102/197
s 2
f 79/99/198 68/102/199 70/129/200 78/106/201 76/103/202 74/104/203 72/105/204 69/120/205 67/132/206
s off
f 85/107/207 86/108/208 87/109/209 88/110/210
f 64/111/211 70/112/212 68/113/213 66/101/214
s 3
f 69/114/215 63/115/216 65/116/217 67/117/218
s off
f 69/120/219 72/105/220 71/118/221 63/119/222
f 73/123/223 74/104/224 76/103/225 75/124/226
f 90/125/227 89/126/228 91/127/229 92/128/230
f 77/130/231 78/106/232 70/129/233 64/131/234
f 81/133/235 82/134/236 83/135/237 84/136/238
s 1
f 65/116/186 80/100/185 82/134/239 81/133/240
s off
f 80/100/241 79/99/242 83/135/243 82/134/244
s 2
f 79/99/198 67/132/206 84/136/245 83/135/246
s 3
f 67/132/218 65/116/217 81/133/247 84/136/248
s off
f 71/118/249 72/105/250 86/108/251 85/107/252
s 2
f 72/105/204 74/104/203 87/109/253 86/108/254
s off
f 74/104/255 73/123/256 88/110/257 87/109/258
s 1
f 73/123/189 71/118/188 85/107/259 88/110/260
s off
f 75/124/261 76/103/262 89/126/263 90/125/264
s 2
f 76/103/202 78/106/201 91/127/265 89/126/266
s off
f 78/106/267 77/130/268 92/128/269 91/127/270
s 1
f 77/130/191 75/124/190 90/125/271 92/128/272
